<svg width="122" height="18" viewBox="0 0 122 18" fill="none" xmlns="http://www.w3.org/2000/svg">
<g opacity="0.6">
<path d="M39.408 4.696V13H38.316V6.808L35.556 13H34.788L32.016 6.796V13H30.924V4.696H32.1L35.172 11.56L38.244 4.696H39.408ZM41.3519 9.688C41.3519 9.016 41.4879 8.428 41.7599 7.924C42.0319 7.412 42.4039 7.016 42.8759 6.736C43.3559 6.456 43.8879 6.316 44.4719 6.316C45.0479 6.316 45.5479 6.44 45.9719 6.688C46.3959 6.936 46.7119 7.248 46.9199 7.624V6.424H48.0239V13H46.9199V11.776C46.7039 12.16 46.3799 12.48 45.9479 12.736C45.5239 12.984 45.0279 13.108 44.4599 13.108C43.8759 13.108 43.3479 12.964 42.8759 12.676C42.4039 12.388 42.0319 11.984 41.7599 11.464C41.4879 10.944 41.3519 10.352 41.3519 9.688ZM46.9199 9.7C46.9199 9.204 46.8199 8.772 46.6199 8.404C46.4199 8.036 46.1479 7.756 45.8039 7.564C45.4679 7.364 45.0959 7.264 44.6879 7.264C44.2799 7.264 43.9079 7.36 43.5719 7.552C43.2359 7.744 42.9679 8.024 42.7679 8.392C42.5679 8.76 42.4679 9.192 42.4679 9.688C42.4679 10.192 42.5679 10.632 42.7679 11.008C42.9679 11.376 43.2359 11.66 43.5719 11.86C43.9079 12.052 44.2799 12.148 44.6879 12.148C45.0959 12.148 45.4679 12.052 45.8039 11.86C46.1479 11.66 46.4199 11.376 46.6199 11.008C46.8199 10.632 46.9199 10.196 46.9199 9.7ZM53.5733 6.304C54.3733 6.304 55.0213 6.548 55.5173 7.036C56.0133 7.516 56.2613 8.212 56.2613 9.124V13H55.1813V9.28C55.1813 8.624 55.0173 8.124 54.6893 7.78C54.3613 7.428 53.9133 7.252 53.3453 7.252C52.7693 7.252 52.3093 7.432 51.9653 7.792C51.6293 8.152 51.4613 8.676 51.4613 9.364V13H50.3693V6.424H51.4613V7.36C51.6773 7.024 51.9693 6.764 52.3373 6.58C52.7133 6.396 53.1253 6.304 53.5733 6.304ZM58.1371 9.688C58.1371 9.016 58.2731 8.428 58.5451 7.924C58.8171 7.412 59.1891 7.016 59.6611 6.736C60.1411 6.456 60.6731 6.316 61.2571 6.316C61.8331 6.316 62.3331 6.44 62.7571 6.688C63.1811 6.936 63.4971 7.248 63.7051 7.624V6.424H64.8091V13H63.7051V11.776C63.4891 12.16 63.1651 12.48 62.7331 12.736C62.3091 12.984 61.8131 13.108 61.2451 13.108C60.6611 13.108 60.1331 12.964 59.6611 12.676C59.1891 12.388 58.8171 11.984 58.5451 11.464C58.2731 10.944 58.1371 10.352 58.1371 9.688ZM63.7051 9.7C63.7051 9.204 63.6051 8.772 63.4051 8.404C63.2051 8.036 62.9331 7.756 62.5891 7.564C62.2531 7.364 61.8811 7.264 61.4731 7.264C61.0651 7.264 60.6931 7.36 60.3571 7.552C60.0211 7.744 59.7531 8.024 59.5531 8.392C59.3531 8.76 59.2531 9.192 59.2531 9.688C59.2531 10.192 59.3531 10.632 59.5531 11.008C59.7531 11.376 60.0211 11.66 60.3571 11.86C60.6931 12.052 61.0651 12.148 61.4731 12.148C61.8811 12.148 62.2531 12.052 62.5891 11.86C62.9331 11.66 63.2051 11.376 63.4051 11.008C63.6051 10.632 63.7051 10.196 63.7051 9.7ZM69.8665 6.316C70.4345 6.316 70.9305 6.44 71.3545 6.688C71.7865 6.936 72.1065 7.248 72.3145 7.624V6.424H73.4185V13.144C73.4185 13.744 73.2905 14.276 73.0345 14.74C72.7785 15.212 72.4105 15.58 71.9305 15.844C71.4585 16.108 70.9065 16.24 70.2745 16.24C69.4105 16.24 68.6905 16.036 68.1145 15.628C67.5385 15.22 67.1985 14.664 67.0945 13.96H68.1745C68.2945 14.36 68.5425 14.68 68.9185 14.92C69.2945 15.168 69.7465 15.292 70.2745 15.292C70.8745 15.292 71.3625 15.104 71.7385 14.728C72.1225 14.352 72.3145 13.824 72.3145 13.144V11.764C72.0985 12.148 71.7785 12.468 71.3545 12.724C70.9305 12.98 70.4345 13.108 69.8665 13.108C69.2825 13.108 68.7505 12.964 68.2705 12.676C67.7985 12.388 67.4265 11.984 67.1545 11.464C66.8825 10.944 66.7465 10.352 66.7465 9.688C66.7465 9.016 66.8825 8.428 67.1545 7.924C67.4265 7.412 67.7985 7.016 68.2705 6.736C68.7505 6.456 69.2825 6.316 69.8665 6.316ZM72.3145 9.7C72.3145 9.204 72.2145 8.772 72.0145 8.404C71.8145 8.036 71.5425 7.756 71.1985 7.564C70.8625 7.364 70.4905 7.264 70.0825 7.264C69.6745 7.264 69.3025 7.36 68.9665 7.552C68.6305 7.744 68.3625 8.024 68.1625 8.392C67.9625 8.76 67.8625 9.192 67.8625 9.688C67.8625 10.192 67.9625 10.632 68.1625 11.008C68.3625 11.376 68.6305 11.66 68.9665 11.86C69.3025 12.052 69.6745 12.148 70.0825 12.148C70.4905 12.148 70.8625 12.052 71.1985 11.86C71.5425 11.66 71.8145 11.376 72.0145 11.008C72.2145 10.632 72.3145 10.196 72.3145 9.7ZM81.7638 9.46C81.7638 9.668 81.7518 9.888 81.7278 10.12H76.4718C76.5118 10.768 76.7318 11.276 77.1318 11.644C77.5398 12.004 78.0318 12.184 78.6078 12.184C79.0798 12.184 79.4718 12.076 79.7838 11.86C80.1038 11.636 80.3278 11.34 80.4558 10.972H81.6318C81.4558 11.604 81.1038 12.12 80.5758 12.52C80.0478 12.912 79.3918 13.108 78.6078 13.108C77.9838 13.108 77.4238 12.968 76.9278 12.688C76.4398 12.408 76.0558 12.012 75.7758 11.5C75.4958 10.98 75.3558 10.38 75.3558 9.7C75.3558 9.02 75.4918 8.424 75.7638 7.912C76.0358 7.4 76.4158 7.008 76.9038 6.736C77.3998 6.456 77.9678 6.316 78.6078 6.316C79.2318 6.316 79.7838 6.452 80.2638 6.724C80.7438 6.996 81.1118 7.372 81.3678 7.852C81.6318 8.324 81.7638 8.86 81.7638 9.46ZM80.6358 9.232C80.6358 8.816 80.5438 8.46 80.3598 8.164C80.1758 7.86 79.9238 7.632 79.6038 7.48C79.2918 7.32 78.9438 7.24 78.5598 7.24C78.0078 7.24 77.5358 7.416 77.1438 7.768C76.7598 8.12 76.5398 8.608 76.4838 9.232H80.6358ZM95.8885 4.696V13H94.7965V6.808L92.0365 13H91.2685L88.4965 6.796V13H87.4045V4.696H88.5805L91.6525 11.56L94.7245 4.696H95.8885ZM104.24 9.46C104.24 9.668 104.228 9.888 104.204 10.12H98.9484C98.9884 10.768 99.2084 11.276 99.6084 11.644C100.016 12.004 100.508 12.184 101.084 12.184C101.556 12.184 101.948 12.076 102.26 11.86C102.58 11.636 102.804 11.34 102.932 10.972H104.108C103.932 11.604 103.58 12.12 103.052 12.52C102.524 12.912 101.868 13.108 101.084 13.108C100.46 13.108 99.9004 12.968 99.4044 12.688C98.9164 12.408 98.5324 12.012 98.2524 11.5C97.9724 10.98 97.8324 10.38 97.8324 9.7C97.8324 9.02 97.9684 8.424 98.2404 7.912C98.5124 7.4 98.8924 7.008 99.3804 6.736C99.8764 6.456 100.444 6.316 101.084 6.316C101.708 6.316 102.26 6.452 102.74 6.724C103.22 6.996 103.588 7.372 103.844 7.852C104.108 8.324 104.24 8.86 104.24 9.46ZM103.112 9.232C103.112 8.816 103.02 8.46 102.836 8.164C102.652 7.86 102.4 7.632 102.08 7.48C101.768 7.32 101.42 7.24 101.036 7.24C100.484 7.24 100.012 7.416 99.6204 7.768C99.2364 8.12 99.0164 8.608 98.9604 9.232H103.112ZM109.386 6.304C110.186 6.304 110.834 6.548 111.33 7.036C111.826 7.516 112.074 8.212 112.074 9.124V13H110.994V9.28C110.994 8.624 110.83 8.124 110.502 7.78C110.174 7.428 109.726 7.252 109.158 7.252C108.582 7.252 108.122 7.432 107.778 7.792C107.442 8.152 107.274 8.676 107.274 9.364V13H106.182V6.424H107.274V7.36C107.49 7.024 107.782 6.764 108.15 6.58C108.526 6.396 108.938 6.304 109.386 6.304ZM120.19 6.424V13H119.098V12.028C118.89 12.364 118.598 12.628 118.222 12.82C117.854 13.004 117.446 13.096 116.998 13.096C116.486 13.096 116.026 12.992 115.618 12.784C115.21 12.568 114.886 12.248 114.646 11.824C114.414 11.4 114.298 10.884 114.298 10.276V6.424H115.378V10.132C115.378 10.78 115.542 11.28 115.87 11.632C116.198 11.976 116.646 12.148 117.214 12.148C117.798 12.148 118.258 11.968 118.594 11.608C118.93 11.248 119.098 10.724 119.098 10.036V6.424H120.19Z" fill="#273240"/>
<path fill-rule="evenodd" clip-rule="evenodd" d="M5.8575 1.5H12.1432C14.46 1.5 15.75 2.835 15.75 5.1225V12.87C15.75 15.195 14.46 16.5 12.1432 16.5H5.8575C3.5775 16.5 2.25 15.195 2.25 12.87V5.1225C2.25 2.835 3.5775 1.5 5.8575 1.5ZM6.06011 4.995V4.9875H8.30185C8.6251 4.9875 8.8876 5.25 8.8876 5.57175C8.8876 5.9025 8.6251 6.165 8.30185 6.165H6.06011C5.73686 6.165 5.47511 5.9025 5.47511 5.58C5.47511 5.2575 5.73686 4.995 6.06011 4.995ZM6.06011 9.555H11.9401C12.2626 9.555 12.5251 9.2925 12.5251 8.97C12.5251 8.6475 12.2626 8.38425 11.9401 8.38425H6.06011C5.73686 8.38425 5.47511 8.6475 5.47511 8.97C5.47511 9.2925 5.73686 9.555 6.06011 9.555ZM6.06002 12.9825H11.94C12.2393 12.9525 12.465 12.6968 12.465 12.3975C12.465 12.09 12.2393 11.835 11.94 11.805H6.06002C5.83502 11.7825 5.61752 11.8875 5.49752 12.0825C5.37752 12.27 5.37752 12.5175 5.49752 12.7125C5.61752 12.9 5.83502 13.0125 6.06002 12.9825Z" fill="#A6ABC8"/>
</g>
</svg>
